<?xml version="1.0" encoding="utf-8"?>
<!-- Generator: Adobe Illustrator 26.1.0, SVG Export Plug-In . SVG Version: 6.00 Build 0)  -->
<svg version="1.1" id="Layer_1" xmlns="http://www.w3.org/2000/svg" xmlns:xlink="http://www.w3.org/1999/xlink" x="0px" y="0px"
	 viewBox="0 0 12 12" style="enable-background:new 0 0 12 12;" xml:space="preserve">
<style type="text/css">
	.st0{fill:#FFFFFF;}
</style>
<rect class="st0" width="12" height="12"/>
<path d="M4.97,0.47V1.4H0.93v3.02h0.71v2.45H0.93v4.45H4.8v-0.3h4.16V9.95h2.23V6.2h-0.6V1.75H9V0.47L4.97,0.47L4.97,0.47z
	 M5.41,0.91h3.15l0,0.84h-1.6v1.85h1.9V4.7H9.3V3.17H7.4V2.19h2.75V6.2H8.02V4.72H5.27v0.22l0,1.65V6.8h1.77V6.37H5.7V5.16h1.87
	l0,2.97l-4.36,0V5.92H4.2v1.26h0.44v-3.1H6.2V3.64H4.2v1.84H2.78v1.38H2.07V4.42h1.35V3.98H1.36V1.84h3.61v0.73H2.61V3h2.8
	L5.41,0.91L5.41,0.91z M8.02,6.64h2.73v2.88H7.08v0.44h1.44v0.63H4.8V9.44H2.58v0.44h1.78v1.01H1.37V7.31h1.42v1.26H3l2.69,0v1.52
	h0.44V8.57h1.89V7.83h1.56v0.79h0.44V7.39h-2V6.64z"/>
</svg>
